<?xml version="1.0" encoding="utf-8"?>
<!-- Generator: Adobe Illustrator 18.0.0, SVG Export Plug-In . SVG Version: 6.00 Build 0)  -->
<!DOCTYPE svg PUBLIC "-//W3C//DTD SVG 1.1//EN" "http://www.w3.org/Graphics/SVG/1.1/DTD/svg11.dtd">
<svg version="1.1" id="Layer_1" xmlns="http://www.w3.org/2000/svg" xmlns:xlink="http://www.w3.org/1999/xlink" x="0px" y="0px"
	 viewBox="0 0 566.9 146.9" enable-background="new 0 0 566.9 146.9" xml:space="preserve">
<g>
	<g>
		<polygon fill="#FF6666" points="522.9,19.9 542.7,19.9 566.9,53.3 542.7,86.7 523,86.7 547.2,53.3 		"/>
		<path fill="#003366" d="M175,66V32.6h17.5V19.9H175V0h-15v68.5c0,14.3,7.8,19.2,18.8,19.2c5.6,0,10.6-1.2,14.3-3.3l0.1-11.3
			c-3,1.5-6.9,1.9-10.2,1.9C177.9,74.9,175,71.9,175,66z M62.9,62.3L17.7,0H0v86.7h14.9V20.6l0,0l48,66.1h14.9V0H62.9V62.3z
			 M119,18.6c-18.9,0-32.4,15.6-32.4,34.5v0.3c0,20.4,14.8,34.4,34,34.4c12.2,0,20.8-4.9,27.1-12.4l-8.9-7.9
			c-5.3,5.1-10.5,7.9-17.9,7.9c-9.8,0-17.4-6-19.1-16.8h48.7c0.1-1.5,0.3-2.9,0.3-4.3C150.7,35.1,140.1,18.6,119,18.6z M102,46.4
			c1.9-9.2,8.2-15.4,16.8-15.4c9.3,0,15,6.6,16.5,15.4H102z M283,66.6L265.8,20h-15.2l0,0l0,0h0l0,0l-16.9,47.5L216.2,20h-15.2
			l25.9,66.7h13.9l0,0l17.4-46.5l17.4,46.4h14.9l0,0L315.4,20h-15.2L283,66.6z M351.3,18.6c-20.3,0-35.4,15.7-35.4,34.6v0.3
			c0,18.8,14.9,34.3,35.1,34.3c20.4,0,35.5-15.7,35.5-34.5v-0.3C386.5,34,371.6,18.6,351.3,18.6z M371.3,53.4
			c0,11.4-7.8,21.1-20.1,21.1c-11.8,0-20.2-9.8-20.2-21.3v-0.3c0-11.5,7.8-21.1,19.9-21.1c11.9,0,20.3,9.7,20.3,21.3V53.4z
			 M483.5,19.9L483.5,19.9L483.5,19.9l-24.2,33.4h0V0h-15.1v86.7h15.1V53.3l24.3,33.4h19.7l0,0h0L479,53.3l24.2-33.4h0l0,0H483.5z
			 M410.5,34.9V19.9h-15.2v66.8h15.2V61c0-17.6,9.3-26.2,22.6-26.2h0.9V18.7C422.3,18.2,414.7,25,410.5,34.9z"/>
		<polygon fill="#FF6666" points="565.8,53.3 565.8,53.3 565.8,53.3 		"/>
	</g>
	<g>
		<g>
			<path fill="#003366" d="M0,119.1h2.5v22.5H0V119.1z"/>
			<path fill="#003366" d="M8.7,125h2.5v2.9c1.1-1.8,2.8-3.2,5.7-3.2c4,0,6.4,2.7,6.4,6.7v10.3h-2.5v-9.7c0-3.1-1.7-5-4.6-5
				c-2.9,0-5,2.1-5,5.2v9.5H8.7V125z"/>
			<path fill="#003366" d="M29.4,137.2v-10h-2.3V125h2.3v-5h2.5v5h5.3v2.2h-5.3v9.7c0,2,1.1,2.8,2.8,2.8c0.8,0,1.5-0.2,2.4-0.6v2.1
				c-0.9,0.5-1.8,0.7-3,0.7C31.4,141.9,29.4,140.6,29.4,137.2z"/>
			<path fill="#003366" d="M48.3,139.9c2.3,0,3.9-0.9,5.2-2.3l1.5,1.4c-1.7,1.9-3.7,3.1-6.8,3.1c-4.6,0-8.3-3.5-8.3-8.7
				c0-4.8,3.4-8.7,8-8.7c4.9,0,7.7,3.9,7.7,8.8c0,0.2,0,0.5,0,0.9H42.5C42.9,137.9,45.4,139.9,48.3,139.9z M53.2,132.4
				c-0.3-3-2-5.6-5.3-5.6c-2.9,0-5,2.4-5.4,5.6H53.2z"/>
			<path fill="#003366" d="M60,125h2.5v4.3c1.2-2.8,3.6-4.8,6.8-4.6v2.7h-0.2c-3.6,0-6.6,2.6-6.6,7.6v6.6H60V125z"/>
			<path fill="#003366" d="M73.1,125h2.5v2.9c1.1-1.8,2.8-3.2,5.7-3.2c4,0,6.4,2.7,6.4,6.7v10.3h-2.5v-9.7c0-3.1-1.7-5-4.6-5
				c-2.9,0-5,2.1-5,5.2v9.5h-2.5V125z"/>
			<path fill="#003366" d="M91.6,136.8L91.6,136.8c0-3.6,2.9-5.5,7.1-5.5c2.1,0,3.6,0.3,5.1,0.7v-0.5c0-3-1.8-4.5-4.9-4.5
				c-2,0-3.5,0.5-5,1.2l-0.7-2c1.8-0.8,3.6-1.4,6-1.4c2.3,0,4.2,0.6,5.4,1.8c1.2,1.2,1.7,2.8,1.7,4.9v10.2h-2.4v-2.5
				c-1.2,1.5-3.1,2.8-6,2.8C94.7,142,91.6,140.2,91.6,136.8z M103.8,135.5V134c-1.2-0.4-2.8-0.7-4.9-0.7c-3.1,0-4.9,1.3-4.9,3.3v0.1
				c0,2.1,1.9,3.3,4.2,3.3C101.4,140,103.8,138.2,103.8,135.5z"/>
			<path fill="#003366" d="M112.2,137.2v-10h-2.3V125h2.3v-5h2.5v5h5.3v2.2h-5.3v9.7c0,2,1.1,2.8,2.8,2.8c0.8,0,1.5-0.2,2.4-0.6v2.1
				c-0.9,0.5-1.8,0.7-3,0.7C114.2,141.9,112.2,140.6,112.2,137.2z"/>
			<path fill="#003366" d="M124.4,119.1h2.8v2.7h-2.8V119.1z M124.5,125h2.5v16.6h-2.5V125z"/>
			<path fill="#003366" d="M131.7,133.4L131.7,133.4c0-4.8,3.7-8.7,8.7-8.7c5,0,8.6,3.9,8.6,8.6v0.1c0,4.7-3.7,8.7-8.7,8.7
				C135.4,142,131.7,138.1,131.7,133.4z M146.5,133.4L146.5,133.4c0-3.6-2.7-6.6-6.2-6.6c-3.6,0-6.1,2.9-6.1,6.4v0.1
				c0,3.6,2.6,6.5,6.1,6.5C144,139.8,146.5,136.9,146.5,133.4z"/>
			<path fill="#003366" d="M153.5,125h2.5v2.9c1.1-1.8,2.8-3.2,5.7-3.2c4,0,6.4,2.7,6.4,6.7v10.3h-2.5v-9.7c0-3.1-1.7-5-4.6-5
				c-2.9,0-5,2.1-5,5.2v9.5h-2.5V125z"/>
			<path fill="#003366" d="M172.1,136.8L172.1,136.8c0-3.6,2.9-5.5,7.1-5.5c2.1,0,3.6,0.3,5.1,0.7v-0.5c0-3-1.8-4.5-4.9-4.5
				c-2,0-3.5,0.5-5,1.2l-0.7-2c1.8-0.8,3.6-1.4,6-1.4c2.3,0,4.2,0.6,5.4,1.8c1.2,1.2,1.7,2.8,1.7,4.9v10.2h-2.4v-2.5
				c-1.2,1.5-3.1,2.8-6,2.8C175.2,142,172.1,140.2,172.1,136.8z M184.3,135.5V134c-1.2-0.4-2.8-0.7-4.9-0.7c-3.1,0-4.9,1.3-4.9,3.3
				v0.1c0,2.1,1.9,3.3,4.2,3.3C181.8,140,184.3,138.2,184.3,135.5z"/>
			<path fill="#003366" d="M192.2,119.1h2.5v22.5h-2.5V119.1z"/>
			<path fill="#003366" d="M210.5,119.1h8.4c5.1,0,8.4,2.7,8.4,7.1v0.1c0,4.9-4.1,7.4-8.8,7.4H213v7.9h-2.5V119.1z M218.6,131.4
				c3.7,0,6.2-2,6.2-5v-0.1c0-3.2-2.4-4.9-6-4.9H213v9.9H218.6z"/>
			<path fill="#003366" d="M229.9,136.8L229.9,136.8c0-3.6,2.9-5.5,7.1-5.5c2.1,0,3.6,0.3,5.1,0.7v-0.5c0-3-1.8-4.5-4.9-4.5
				c-2,0-3.5,0.5-5,1.2l-0.7-2c1.8-0.8,3.6-1.4,6-1.4c2.3,0,4.2,0.6,5.4,1.8c1.2,1.2,1.7,2.8,1.7,4.9v10.2h-2.4v-2.5
				c-1.2,1.5-3.1,2.8-6,2.8C233,142,229.9,140.2,229.9,136.8z M242.1,135.5V134c-1.2-0.4-2.8-0.7-4.9-0.7c-3.1,0-4.9,1.3-4.9,3.3
				v0.1c0,2.1,1.9,3.3,4.2,3.3C239.7,140,242.1,138.2,242.1,135.5z"/>
			<path fill="#003366" d="M248.2,146.1l0.8-2c0.8,0.4,1.5,0.6,2.6,0.6c1.5,0,2.4-0.8,3.4-3.1l-7.6-16.6h2.7l6,13.9l5.3-13.9h2.6
				l-7,17.2c-1.4,3.4-3,4.7-5.5,4.7C250.3,146.9,249.3,146.6,248.2,146.1z"/>
			<path fill="#003366" d="M268.2,125h2.5v2.8c1.1-1.6,2.6-3.2,5.4-3.2c2.7,0,4.4,1.4,5.3,3.3c1.2-1.8,3-3.3,5.9-3.3
				c3.8,0,6.2,2.6,6.2,6.7v10.3h-2.5v-9.7c0-3.2-1.6-5-4.3-5c-2.5,0-4.6,1.9-4.6,5.1v9.6h-2.4v-9.8c0-3.1-1.6-5-4.3-5
				c-2.6,0-4.6,2.2-4.6,5.2v9.5h-2.5V125z"/>
			<path fill="#003366" d="M306,139.9c2.3,0,3.9-0.9,5.2-2.3l1.5,1.4c-1.7,1.9-3.7,3.1-6.8,3.1c-4.6,0-8.3-3.5-8.3-8.7
				c0-4.8,3.4-8.7,8-8.7c4.9,0,7.8,3.9,7.8,8.8c0,0.2,0,0.5,0,0.9h-13.2C300.6,137.9,303.1,139.9,306,139.9z M310.9,132.4
				c-0.3-3-2-5.6-5.3-5.6c-2.9,0-5,2.4-5.4,5.6H310.9z"/>
			<path fill="#003366" d="M317.8,125h2.5v2.9c1.1-1.8,2.8-3.2,5.7-3.2c4,0,6.4,2.7,6.4,6.7v10.3h-2.5v-9.7c0-3.1-1.7-5-4.6-5
				c-2.9,0-5,2.1-5,5.2v9.5h-2.5V125z"/>
			<path fill="#003366" d="M338.4,137.2v-10h-2.3V125h2.3v-5h2.5v5h5.3v2.2h-5.3v9.7c0,2,1.1,2.8,2.8,2.8c0.8,0,1.5-0.2,2.4-0.6v2.1
				c-0.9,0.5-1.8,0.7-3,0.7C340.4,141.9,338.4,140.6,338.4,137.2z"/>
			<path fill="#003366" d="M359.1,138.4l1.6-1.9c2.3,2.1,4.6,3.2,7.7,3.2c3,0,5-1.6,5-3.8v-0.1c0-2.1-1.1-3.3-5.8-4.3
				c-5.2-1.1-7.6-2.8-7.6-6.5V125c0-3.5,3.1-6.1,7.4-6.1c3.3,0,5.6,0.9,7.9,2.8l-1.5,2c-2.1-1.7-4.2-2.4-6.5-2.4
				c-2.9,0-4.8,1.6-4.8,3.6v0.1c0,2.1,1.2,3.3,6.1,4.4c5,1.1,7.3,2.9,7.3,6.4v0.1c0,3.9-3.2,6.4-7.7,6.4
				C364.7,142,361.8,140.8,359.1,138.4z"/>
			<path fill="#003366" d="M379.7,133.4L379.7,133.4c0-4.8,3.7-8.7,8.7-8.7c5,0,8.6,3.9,8.6,8.6v0.1c0,4.7-3.7,8.7-8.7,8.7
				C383.4,142,379.7,138.1,379.7,133.4z M394.5,133.4L394.5,133.4c0-3.6-2.7-6.6-6.2-6.6c-3.6,0-6.1,2.9-6.1,6.4v0.1
				c0,3.6,2.6,6.5,6.1,6.5C392,139.8,394.5,136.9,394.5,133.4z"/>
			<path fill="#003366" d="M401.7,119.1h2.5v22.5h-2.5V119.1z"/>
			<path fill="#003366" d="M409.7,135.4V125h2.5v9.7c0,3.1,1.7,5,4.6,5c2.8,0,5-2.1,5-5.2V125h2.4v16.6h-2.4v-2.9
				c-1.1,1.8-2.8,3.2-5.7,3.2C412.1,142,409.7,139.3,409.7,135.4z"/>
			<path fill="#003366" d="M430.6,137.2v-10h-2.3V125h2.3v-5h2.5v5h5.3v2.2h-5.3v9.7c0,2,1.1,2.8,2.8,2.8c0.8,0,1.5-0.2,2.4-0.6v2.1
				c-0.9,0.5-1.8,0.7-3,0.7C432.7,141.9,430.6,140.6,430.6,137.2z"/>
			<path fill="#003366" d="M442.8,119.1h2.8v2.7h-2.8V119.1z M443,125h2.5v16.6H443V125z"/>
			<path fill="#003366" d="M450.2,133.4L450.2,133.4c0-4.8,3.7-8.7,8.7-8.7c5,0,8.6,3.9,8.6,8.6v0.1c0,4.7-3.7,8.7-8.7,8.7
				C453.8,142,450.2,138.1,450.2,133.4z M465,133.4L465,133.4c0-3.6-2.7-6.6-6.2-6.6c-3.6,0-6.1,2.9-6.1,6.4v0.1
				c0,3.6,2.6,6.5,6.1,6.5C462.5,139.8,465,136.9,465,133.4z"/>
			<path fill="#003366" d="M472,125h2.5v2.9c1.1-1.8,2.8-3.2,5.7-3.2c4,0,6.4,2.7,6.4,6.7v10.3H484v-9.7c0-3.1-1.7-5-4.6-5
				c-2.9,0-5,2.1-5,5.2v9.5H472V125z"/>
			<path fill="#003366" d="M490.4,139.5l1.3-1.8c1.8,1.3,3.8,2.1,5.8,2.1c2,0,3.4-1,3.4-2.6v-0.1c0-1.7-2-2.3-4.1-2.9
				c-2.6-0.7-5.5-1.6-5.5-4.7v-0.1c0-2.9,2.4-4.8,5.7-4.8c2,0,4.3,0.7,6,1.8l-1.1,1.9c-1.5-1-3.3-1.6-4.9-1.6c-2,0-3.2,1-3.2,2.4
				v0.1c0,1.6,2.1,2.2,4.3,2.9c2.6,0.8,5.3,1.8,5.3,4.8v0.1c0,3.2-2.6,5-5.9,5C494.9,142,492.3,141,490.4,139.5z"/>
		</g>
	</g>
</g>
</svg>
